<svg width="100" height="100" viewBox="0 0 100 100" fill="none" xmlns="http://www.w3.org/2000/svg">
<g clipPath="url(#clip0_1049_38653)">
<path d="M20.833 54.1667C20.833 51.9566 21.711 49.837 23.2738 48.2742C24.8366 46.7113 26.9562 45.8334 29.1663 45.8334H70.833C73.0431 45.8334 75.1628 46.7113 76.7256 48.2742C78.2884 49.837 79.1663 51.9566 79.1663 54.1667V79.1667C79.1663 81.3768 78.2884 83.4965 76.7256 85.0593C75.1628 86.6221 73.0431 87.5 70.833 87.5H29.1663C26.9562 87.5 24.8366 86.6221 23.2738 85.0593C21.711 83.4965 20.833 81.3768 20.833 79.1667V54.1667Z" stroke="black" strokeWidth="3" strokeLinecap="round" strokeLinejoin="round"/>
<path d="M45.833 66.6667C45.833 67.7717 46.272 68.8315 47.0534 69.6129C47.8348 70.3943 48.8946 70.8333 49.9997 70.8333C51.1047 70.8333 52.1646 70.3943 52.946 69.6129C53.7274 68.8315 54.1663 67.7717 54.1663 66.6667C54.1663 65.5616 53.7274 64.5018 52.946 63.7204C52.1646 62.939 51.1047 62.5 49.9997 62.5C48.8946 62.5 47.8348 62.939 47.0534 63.7204C46.272 64.5018 45.833 65.5616 45.833 66.6667Z" stroke="black" strokeWidth="3" strokeLinecap="round" strokeLinejoin="round"/>
<path d="M33.333 45.8333V29.1667C33.333 24.7464 35.089 20.5072 38.2146 17.3816C41.3402 14.2559 45.5794 12.5 49.9997 12.5C54.4199 12.5 58.6592 14.2559 61.7848 17.3816C64.9104 20.5072 66.6663 24.7464 66.6663 29.1667V45.8333" stroke="black" strokeWidth="3" strokeLinecap="round" strokeLinejoin="round"/>
</g>
<defs>
<clipPath id="clip0_1049_38653">
<rect width="100" height="100" fill="white"/>
</clipPath>
</defs>
</svg>
