<svg width="60" height="60" viewBox="0 0 60 60" fill="none" xmlns="http://www.w3.org/2000/svg">
<g clipPath="url(#clip0_1049_153439)">
<path d="M12.5 32.5C12.5 31.1739 13.0268 29.9021 13.9645 28.9645C14.9021 28.0268 16.1739 27.5 17.5 27.5H42.5C43.8261 27.5 45.0979 28.0268 46.0355 28.9645C46.9732 29.9021 47.5 31.1739 47.5 32.5V47.5C47.5 48.8261 46.9732 50.0979 46.0355 51.0355C45.0979 51.9732 43.8261 52.5 42.5 52.5H17.5C16.1739 52.5 14.9021 51.9732 13.9645 51.0355C13.0268 50.0979 12.5 48.8261 12.5 47.5V32.5Z" stroke="black" strokeWidth="1.5" strokeLinecap="round" strokeLinejoin="round"/>
<path d="M27.5 40C27.5 40.663 27.7634 41.2989 28.2322 41.7678C28.7011 42.2366 29.337 42.5 30 42.5C30.663 42.5 31.2989 42.2366 31.7678 41.7678C32.2366 41.2989 32.5 40.663 32.5 40C32.5 39.337 32.2366 38.7011 31.7678 38.2322C31.2989 37.7634 30.663 37.5 30 37.5C29.337 37.5 28.7011 37.7634 28.2322 38.2322C27.7634 38.7011 27.5 39.337 27.5 40Z" stroke="black" strokeWidth="1.5" strokeLinecap="round" strokeLinejoin="round"/>
<path d="M20 27.5V17.5C20 14.8478 21.0536 12.3043 22.9289 10.4289C24.8043 8.55357 27.3478 7.5 30 7.5C32.6522 7.5 35.1957 8.55357 37.0711 10.4289C38.9464 12.3043 40 14.8478 40 17.5V27.5" stroke="black" strokeWidth="1.5" strokeLinecap="round" strokeLinejoin="round"/>
</g>
<defs>
<clipPath id="clip0_1049_153439">
<rect width="60" height="60" fill="white"/>
</clipPath>
</defs>
</svg>
