<svg width="140" height="32" viewBox="0 0 140 32" fill="none" xmlns="http://www.w3.org/2000/svg">
<path d="M31.0364 27.9616L27.6092 31.2927L24.4384 27.9616H14.6374C9.96112 27.9616 5.95746 25.111 4.22787 21.0753C3.84352 20.1785 3.55526 19.2176 3.42714 18.1927C3.36308 17.6802 3.33105 17.1678 3.33105 16.6233V9.38464H8.26356V17.0396C8.26356 18.3849 8.71197 19.666 9.44865 20.659C10.2494 21.7479 11.3704 22.5487 12.6836 22.9651C13.2281 23.1252 13.8046 23.2213 14.4132 23.2213H19.8261L19.7621 23.1572L19.1535 22.5487L13.132 16.2709H19.9543L25.9117 22.5487L26.0078 22.6448L31.0364 27.9616Z" fill="url(#paint0_linear_7304_18064)"/>
<path d="M31.0365 27.9628L27.6094 31.2938L24.4385 27.9628H14.6375C9.96122 27.9628 5.95756 25.1122 4.22798 21.0765C3.84363 20.1797 3.55536 19.2188 3.42725 18.1938C4.67639 18.8665 6.72626 19.7953 9.44875 20.6601C10.2495 21.7491 11.3705 22.5498 12.6837 22.9662C13.2282 23.1264 13.8047 23.2224 14.4133 23.2224H19.8262L19.7622 23.1584L19.1536 22.5498C21.2355 22.71 23.4776 22.742 25.8798 22.5819L25.9759 22.6779L31.0365 27.9628Z" fill="url(#paint1_linear_7304_18064)"/>
<path d="M28.25 11.6578V20.7541L23.3495 15.8216V11.3375C23.3495 10.697 23.2534 10.1204 23.0933 9.5439C22.3246 6.9175 19.8903 4.99574 17.0077 4.99574H12.2354V0.0632324H16.6234C23.0612 0.0632324 28.25 5.25198 28.25 11.6578Z" fill="url(#paint2_linear_7304_18064)"/>
<path d="M23.0933 9.513C22.3246 6.8866 19.8903 4.96484 17.0077 4.96484H12.2354V0.5448C15.2461 1.66582 22.1324 4.74064 23.0933 9.513Z" fill="url(#paint3_linear_7304_18064)"/>
<path d="M4.06772 0H0V4.06772H4.06772V0Z" fill="url(#paint4_linear_7304_18064)"/>
<path d="M4.67609 5.44421H1.79346V8.32685H4.67609V5.44421Z" fill="url(#paint5_linear_7304_18064)"/>
<path d="M10.9539 1.02441H6.24561V5.73272H10.9539V1.02441Z" fill="url(#paint6_linear_7304_18064)"/>
<path d="M48.8771 6.66284C51.5356 6.66284 53.3933 7.07922 54.4182 7.94401C55.4432 8.8088 55.9556 10.5384 55.9556 13.1648C55.9556 15.631 55.5392 17.3606 54.7385 18.3856C53.9378 19.4105 52.2723 19.8909 49.7099 19.8909H48.3327H39.941V29.9481L34.5601 24.2789V6.66284H48.8771ZM50.5427 13.357C50.5427 12.3641 50.3185 11.7235 49.9021 11.4032C49.4857 11.0829 48.749 10.9548 47.6921 10.9548H39.973V15.631H47.7561C48.7811 15.631 49.4857 15.4709 49.9021 15.1826C50.3505 14.8944 50.5427 14.2858 50.5427 13.357Z" fill="url(#paint7_linear_7304_18064)"/>
<path d="M74.9806 6.66284C77.0946 6.66284 78.5999 7.07922 79.5288 7.87995C80.4256 8.71272 80.874 10.154 80.874 12.2359C80.874 13.0367 80.842 13.7093 80.7459 14.2858C80.6498 14.8623 80.4897 15.3428 80.2014 15.7592C79.9452 16.1755 79.6249 16.4958 79.2726 16.688C78.9202 16.8802 78.1836 17.1684 77.0625 17.5528C78.2796 17.7129 79.2085 18.0332 79.785 18.4816C80.3616 18.9621 80.6498 19.7628 80.6498 20.9159V24.311H75.2048V22.6134C75.2048 21.7486 75.1408 21.076 74.9806 20.5636C74.8205 20.0511 74.1158 19.7948 72.8667 19.7948H63.8985V24.311H58.5176V6.69487H74.9806V6.66284ZM72.7386 15.5029C73.9557 15.5029 74.7244 15.3428 75.0127 15.0545C75.3009 14.7662 75.4611 14.0936 75.4611 13.0367C75.4611 12.4601 75.397 12.0117 75.3009 11.7555C75.1728 11.4672 74.9486 11.2751 74.5963 11.179C74.244 11.0829 73.9237 11.0188 73.6995 10.9868C73.4753 10.9548 73.187 10.9548 72.8667 10.9548H72.4503H63.9305V15.5029H72.0339H72.7386Z" fill="url(#paint8_linear_7304_18064)"/>
<path d="M83.501 24.2789V6.66284H88.8819V24.2789H83.501Z" fill="url(#paint9_linear_7304_18064)"/>
<path d="M107.939 24.2789L97.3375 11.0509V24.2789H92.2769V6.66284H100.829L111.462 19.8909V6.66284H116.523V24.2789H107.939Z" fill="url(#paint10_linear_7304_18064)"/>
<path d="M126.772 24.2789V11.0829H118.893V6.66284H140V11.0829H132.153V24.311H126.772V24.2789Z" fill="url(#paint11_linear_7304_18064)"/>
<defs>
<linearGradient id="paint0_linear_7304_18064" x1="3.33105" y1="20.3387" x2="31.7413" y2="20.5729" gradientUnits="userSpaceOnUse">
<stop stop-color="#C83B62"/>
<stop offset="1" stop-color="#7F35CD"/>
</linearGradient>
<linearGradient id="paint1_linear_7304_18064" x1="3.42725" y1="24.7438" x2="31.7355" y2="25.1329" gradientUnits="userSpaceOnUse">
<stop stop-color="#C83B62"/>
<stop offset="1" stop-color="#7F35CD"/>
</linearGradient>
<linearGradient id="paint2_linear_7304_18064" x1="12.2354" y1="10.4087" x2="28.6581" y2="10.4916" gradientUnits="userSpaceOnUse">
<stop stop-color="#C83B62"/>
<stop offset="1" stop-color="#7F35CD"/>
</linearGradient>
<linearGradient id="paint3_linear_7304_18064" x1="12.2354" y1="5.0289" x2="23.3696" y2="5.1168" gradientUnits="userSpaceOnUse">
<stop stop-color="#C83B62"/>
<stop offset="1" stop-color="#7F35CD"/>
</linearGradient>
<linearGradient id="paint4_linear_7304_18064" x1="3.17241e-08" y1="2.03386" x2="4.17132" y2="2.06106" gradientUnits="userSpaceOnUse">
<stop stop-color="#C83B62"/>
<stop offset="1" stop-color="#7F35CD"/>
</linearGradient>
<linearGradient id="paint5_linear_7304_18064" x1="1.79346" y1="6.88553" x2="4.74951" y2="6.90481" gradientUnits="userSpaceOnUse">
<stop stop-color="#C83B62"/>
<stop offset="1" stop-color="#7F35CD"/>
</linearGradient>
<linearGradient id="paint6_linear_7304_18064" x1="6.24561" y1="3.37857" x2="11.0738" y2="3.41005" gradientUnits="userSpaceOnUse">
<stop stop-color="#C83B62"/>
<stop offset="1" stop-color="#7F35CD"/>
</linearGradient>
<linearGradient id="paint7_linear_7304_18064" x1="34.5601" y1="18.3055" x2="56.5007" y2="18.4369" gradientUnits="userSpaceOnUse">
<stop stop-color="#C83B62"/>
<stop offset="1" stop-color="#7F35CD"/>
</linearGradient>
<linearGradient id="paint8_linear_7304_18064" x1="58.5176" y1="15.4869" x2="81.4428" y2="15.6763" gradientUnits="userSpaceOnUse">
<stop stop-color="#C83B62"/>
<stop offset="1" stop-color="#7F35CD"/>
</linearGradient>
<linearGradient id="paint9_linear_7304_18064" x1="83.501" y1="15.4709" x2="89.0192" y2="15.4819" gradientUnits="userSpaceOnUse">
<stop stop-color="#C83B62"/>
<stop offset="1" stop-color="#7F35CD"/>
</linearGradient>
<linearGradient id="paint10_linear_7304_18064" x1="92.2769" y1="15.4709" x2="117.14" y2="15.694" gradientUnits="userSpaceOnUse">
<stop stop-color="#C83B62"/>
<stop offset="1" stop-color="#7F35CD"/>
</linearGradient>
<linearGradient id="paint11_linear_7304_18064" x1="118.893" y1="15.4869" x2="140.538" y2="15.6557" gradientUnits="userSpaceOnUse">
<stop stop-color="#C83B62"/>
<stop offset="1" stop-color="#7F35CD"/>
</linearGradient>
</defs>
</svg>
