<svg width="60" height="60" viewBox="0 0 60 60" fill="none" xmlns="http://www.w3.org/2000/svg">
<path d="M52.4713 22.5L37.9722 35.4135C35.1515 37.921 33.741 39.1747 32.1493 39.6507C30.7473 40.0702 29.2527 40.0702 27.8507 39.6507C26.259 39.1747 24.8485 37.921 22.0276 35.4135L7.52877 22.5M25.1262 9.6661L14.6264 14.3327C12.0469 15.4792 10.7571 16.0524 9.8114 16.9585C8.97545 17.7594 8.33628 18.7429 7.9439 19.8321C7.5 21.0643 7.5 22.4757 7.5 25.2985V40.5C7.5 44.7005 7.5 46.8005 8.31745 48.405C9.0365 49.8162 10.1839 50.9635 11.5951 51.6825C13.1994 52.5 15.2996 52.5 19.5 52.5H40.5C44.7005 52.5 46.8005 52.5 48.405 51.6825C49.8162 50.9635 50.9635 49.8162 51.6825 48.405C52.5 46.8005 52.5 44.7005 52.5 40.5V25.2985C52.5 22.4757 52.5 21.0643 52.056 19.8321C51.6637 18.7429 51.0245 17.7594 50.1885 16.9585C49.243 16.0524 47.9532 15.4792 45.3737 14.3327L34.8738 9.6661C33.079 8.86845 32.1815 8.46962 31.2488 8.3121C30.4223 8.1725 29.5777 8.1725 28.7512 8.3121C27.8185 8.46962 26.921 8.86845 25.1262 9.6661Z" stroke="black" strokeWidth="1.5" strokeLinecap="round" strokeLinejoin="round"/>
</svg>
