<svg width="100" height="100" viewBox="0 0 100 100" fill="none" xmlns="http://www.w3.org/2000/svg">
<path d="M87.4521 37.5L63.2871 59.0225C58.5858 63.2017 56.235 65.2913 53.5821 66.0846C51.2454 66.7838 48.7546 66.7838 46.4179 66.0846C43.765 65.2913 41.4142 63.2017 36.7127 59.0225L12.548 37.5M41.8771 16.1102L24.3773 23.8879C20.0781 25.7987 17.9285 26.754 16.3523 28.2641C14.9591 29.599 13.8938 31.2383 13.2398 33.0536C12.5 35.1073 12.5 37.4595 12.5 42.1642V67.5C12.5 74.5008 12.5 78.0008 13.8624 80.675C15.0608 83.0271 16.9731 84.9392 19.3251 86.1375C21.999 87.5 25.4993 87.5 32.5 87.5H67.5C74.5008 87.5 78.0008 87.5 80.675 86.1375C83.0271 84.9392 84.9392 83.0271 86.1375 80.675C87.5 78.0008 87.5 74.5008 87.5 67.5V42.1642C87.5 37.4595 87.5 35.1073 86.76 33.0536C86.1062 31.2383 85.0408 29.599 83.6475 28.2641C82.0717 26.754 79.9221 25.7986 75.6229 23.8879L58.1229 16.1102C55.1317 14.7808 53.6358 14.116 52.0812 13.8535C50.7037 13.6208 49.2962 13.6208 47.9187 13.8535C46.3642 14.116 44.8683 14.7808 41.8771 16.1102Z" stroke="black" strokeWidth="2" strokeLinecap="round" strokeLinejoin="round"/>
</svg>
